# xmcd
#
# Track frame offsets:
#	150
#	17687
#	36115
#	53355
#	69445
#	94462
#	113797
#	137402
#	155032
#	173615
#	190165
#	207512
#	225262
#	239835
#	257820
#	278520
#	301292
#
# Disc length: 4344 seconds
#
# Revision: 2
# Processed by: cddbd v1.5.2PL0 Copyright (c) Steve Scherf et al.
# Submitted via: audiograbber 1.83.01
#
DISCID=e110f611
DTITLE=Curtis Mayfield - Hard Times
DYEAR=1993
DGENRE=Soul
TTITLE0=Superfly
TTITLE1=Dirty Laundry
TTITLE2=Move On Up
TTITLE3=Only You Babe
TTITLE4=Do Do Wap Is Strong In Here
TTITLE5=She Don't Let Nobody (But Me)
TTITLE6=So In Love
TTITLE7=Tripping Out
TTITLE8=Do Be Down
TTITLE9=You Are, You Are
TTITLE10=This Year
TTITLE11=Between You Baby And Me
TTITLE12=Ain't No Love Lost
TTITLE13=Hard Times
TTITLE14=Tomorrow Night For Sure
TTITLE15=Pusherman
TTITLE16=Freddie's Dead
EXTD=
EXTT0=
EXTT1=
EXTT2=
EXTT3=
EXTT4=
EXTT5=
EXTT6=
EXTT7=
EXTT8=
EXTT9=
EXTT10=
EXTT11=
EXTT12=
EXTT13=
EXTT14=
EXTT15=
EXTT16=
PLAYORDER=
